<?xml version="1.0" standalone="no"?><!DOCTYPE svg PUBLIC "-//W3C//DTD SVG 1.1//EN" "http://www.w3.org/Graphics/SVG/1.1/DTD/svg11.dtd"><svg t="1583215324540" class="icon" viewBox="0 0 1279 1024" version="1.1" xmlns="http://www.w3.org/2000/svg" p-id="672" width="159.875" height="128" xmlns:xlink="http://www.w3.org/1999/xlink"><defs><style type="text/css"></style></defs><path d="M597.332836 853.333476v85.333262H127.999893A127.999893 127.999893 0 0 1 0 810.666844v-682.666097A127.999893 127.999893 0 0 1 127.999893 0.000853h426.666311a42.666631 42.666631 0 0 1 30.293309 12.373323L700.159417 128.000747H1066.665778A127.999893 127.999893 0 0 1 1194.665671 256.00064v85.333262h-85.333262V256.00064a42.666631 42.666631 0 0 0-42.666631-42.666631H682.666098a42.666631 42.666631 0 0 1-30.293308-12.373323L537.172886 85.334116H127.999893a42.666631 42.666631 0 0 0-42.666631 42.666631v682.666097a42.666631 42.666631 0 0 0 42.666631 42.666632H597.332836z" fill="#ffffff" fill-opacity=".85" p-id="673"></path><path d="M1115.732404 567.55238v390.229009H725.588729V567.55238h390.143675z m0-48.639959H725.674062a48.810626 48.810626 0 0 0-48.63996 48.639959v390.229009c0 26.794644 21.845315 48.725293 48.63996 48.725292h390.229008c26.794644 0 48.639959-21.930648 48.63996-48.639959V567.467047a48.810626 48.810626 0 0 0-48.63996-48.639959z" fill="#ffffff" fill-opacity=".85" p-id="674"></path><path d="M1220.26565 463.104467V853.333476h-48.63996v-292.69309a48.725293 48.725293 0 0 0-48.725292-48.725293h-292.69309l-0.170666-0.085333v-48.639959H1220.26565z m0-48.639959H830.036642a48.810626 48.810626 0 0 0-48.63996 48.639959v48.63996c0 26.879978 21.845315 48.725293 48.63996 48.725293h292.863756V853.333476c0 26.794644 21.930648 48.639959 48.639959 48.639959h48.725293c26.794644 0 48.639959-21.845315 48.639959-48.639959V463.104467a48.810626 48.810626 0 0 0-48.639959-48.639959z" fill="#ffffff" fill-opacity=".85" p-id="675"></path></svg>