<svg t="1570692621395" class="icon" viewBox="0 0 1024 1024" version="1.1" xmlns="http://www.w3.org/2000/svg" p-id="2942" width="32" height="32"><path d="M728.54016 486.41024L537.59488 486.4l-0.01024-190.94528c0-14.14144-11.45344-25.6-25.59488-25.6s-25.6 11.45344-25.6 25.6L486.40512 486.4l-190.94528-0.01024a25.59488 25.59488 0 0 0-18.10432 43.70432 25.50784 25.50784 0 0 0 18.10432 7.49568l190.94528 0.01024 0.01024 190.94528c0 7.07072 2.86208 13.47072 7.49568 18.10432s11.02848 7.49568 18.10432 7.49568c14.14144 0 25.6-11.45344 25.6-25.6L537.59488 537.6l190.94528 0.01024c14.14144 0 25.6-11.45344 25.6-25.6s-11.45344-25.6-25.6-25.6z" p-id="2943" fill="#2c2c2c"></path><path d="M512 0C229.69856 0 0 229.69856 0 512s229.69856 512 512 512c60.54912 0 119.75168-10.44992 175.9488-31.04768a25.63072 25.63072 0 0 0 15.25248-32.84992c-4.84864-13.30176-19.70176-20.04992-32.84992-15.25248C619.7504 963.39968 566.5024 972.8 512 972.8c-254.10048 0-460.8-206.69952-460.8-460.8s206.69952-460.8 460.8-460.8 460.8 206.69952 460.8 460.8c0 68.50048-14.64832 134.3488-43.55072 195.79904a25.53344 25.53344 0 0 0 12.25216 34.048c12.6976 6.00064 28.00128 0.50176 34.048-12.25216C1007.69792 661.2992 1024 588.09856 1024 512 1024 229.69856 794.30144 0 512 0z" p-id="2944" fill="#2c2c2c"></path></svg>