<svg t="1598865011783" class="icon" viewBox="0 0 1024 1024" version="1.1" xmlns="http://www.w3.org/2000/svg" p-id="2006" width="200" height="200"><path d="M880.3 585.5c-5.9-118.1-83-222.2-195.5-272V204.2c0-77.2-65-139.9-144.9-139.9-79.7 0-144.6 62.8-144.6 139.9v106.4c-120.9 50.3-202.2 162-202.2 289.4 0 5.7 0.5 11.3 1.5 16.9 12 68.9-22.9 140.2-54.7 194.6-17.8 30.5-17.9 68.1-0.4 98.7 17.6 30.6 50.2 49.5 85.5 49.5h454.8c20.1 0 39.6-6.1 56.1-17.6 120.5-83.6 177.4-225.3 144.4-356.6zM493.8 384.6V204.2c0-22.7 20.6-41.4 46-41.4s46.4 18.7 46.4 41.4v181.3c92.3 17.1 165.4 79.9 188.3 160.8H299.3c23.4-82.6 99.4-146.5 194.5-161.7z m185.9 476.5H225c26.6-45.5 70.3-126.2 70.2-216.3h73.3v107.3c0 27.2 22.1 49.3 49.3 49.3 27.2 0 49.3-22.1 49.3-49.3V644.8h103.5v69.1c0 27.2 22.1 49.3 49.3 49.3 27.2 0 49.3-22.1 49.3-49.3v-69.1h121c6.5 85.3-39.2 166.9-110.5 216.3z" p-id="2007" fill="#2c2c2c"></path></svg>