<svg t="1598865145869" class="icon" viewBox="0 0 1024 1024" version="1.1" xmlns="http://www.w3.org/2000/svg" p-id="5034" width="200" height="200"><path d="M474.026667 981.333333a42.666667 42.666667 0 0 1-14.506667-2.56 42.666667 42.666667 0 0 1-27.733333-44.8l32.853333-302.506666H213.333333a42.666667 42.666667 0 0 1-35.413333-66.56l336.64-503.466667a42.666667 42.666667 0 0 1 49.92-16.213333 42.666667 42.666667 0 0 1 27.733333 42.666666l-32.853333 304.64H810.666667a42.666667 42.666667 0 0 1 35.413333 66.56l-336.64 503.466667a42.666667 42.666667 0 0 1-35.413333 18.773333z" p-id="5035" fill="#2c2c2c"></path></svg>