<svg t="1598865318190" class="icon" viewBox="0 0 1024 1024" version="1.1" xmlns="http://www.w3.org/2000/svg" p-id="5864" width="200" height="200"><path d="M351.08864 797.55264A326.69696 326.69696 0 0 0 512 839.68c180.98176 0 327.68-146.69824 327.68-327.68a61.44 61.44 0 0 1 122.88 0c0 248.832-201.728 450.56-450.56 450.56a449.26976 449.26976 0 0 1-250.1632-75.75552l-69.69344 69.69344c-8.35584 8.35584-22.2208 8.02816-30.96576-0.7168a22.97856 22.97856 0 0 1-6.7584-15.09376l-11.01824-231.95648a31.06816 31.06816 0 0 1 32.84992-32.84992l231.95648 11.03872A23.1424 23.1424 0 0 1 430.08 709.8368c0 5.61152-2.17088 10.91584-6.06208 14.78656l-72.9088 72.9088z m321.82272-571.10528A326.69696 326.69696 0 0 0 512 184.32C331.01824 184.32 184.32 331.01824 184.32 512a61.44 61.44 0 0 1-122.88 0C61.44 263.168 263.168 61.44 512 61.44c90.86976 0 177.37728 27.09504 250.1632 75.75552l69.69344-69.69344c8.35584-8.35584 22.2208-8.02816 30.96576 0.7168 4.05504 4.07552 6.47168 9.46176 6.7584 15.09376l11.01824 231.95648a31.06816 31.06816 0 0 1-32.84992 32.84992l-231.95648-11.03872A23.1424 23.1424 0 0 1 593.92 314.1632c0-5.61152 2.17088-10.91584 6.06208-14.78656l72.9088-72.9088z" p-id="5865" fill="#2c2c2c"></path></svg>