<svg t="1570689382306" class="icon" viewBox="0 0 1024 1024" version="1.1" 
    xmlns="http://www.w3.org/2000/svg" p-id="1884" width="32" height="32">
    <path d="M736.779371 362.141457a62.435815 62.435815 0 0 0-123.589955-12.484874H410.83375a62.435815 62.435815 0 1 0-73.661902 73.661902v177.374473a62.435815 62.435815 0 1 0 73.661902 73.661903h202.321335a62.435815 62.435815 0 1 0 73.661902-73.661903v-177.374473a62.447258 62.447258 0 0 0 49.962384-61.177028zM624.713035 624.392477H399.275801A62.470145 62.470145 0 0 0 387.122789 612.228021V411.817753A62.515919 62.515919 0 0 0 399.275801 399.607523h225.437234a62.561693 62.561693 0 0 0 12.21023 12.21023V612.228021A62.515919 62.515919 0 0 0 624.713035 624.392477z" p-id="1885"></path>
    <path d="M1011.503822 299.705642v-49.95094h-99.901881V149.910039a49.95094 49.95094 0 0 0-49.95094-50.008158h-99.901881V0H711.798179v99.901881h-99.90188V0h-49.950941v99.901881h-99.901881V0H412.092537v99.901881h-99.901881V0h-49.95094v99.901881H162.395053A49.95094 49.95094 0 0 0 112.386895 149.910039v99.901881H12.485014v49.893722h99.901881v99.901881H12.485014v49.950941h99.901881v99.90188H12.485014v49.950941h99.901881v99.901881H12.485014v49.95094h99.901881v99.901881A49.95094 49.95094 0 0 0 162.395053 899.116927h99.90188v124.883073h49.893723V899.116927h99.901881v124.883073h49.95094V899.116927h99.901881v124.883073h49.950941V899.116927h99.90188v124.883073h49.950941V899.116927h99.901881a49.95094 49.95094 0 0 0 49.95094-49.95094v-99.901881H1011.503822V699.313166h-99.901881v-99.901881H1011.503822v-49.950941h-99.901881v-99.90188H1011.503822V399.607523h-99.901881v-99.901881z m-149.852821 99.901881V849.165987H162.395053V149.910039h699.313165v149.795603z" p-id="1886"></path>
</svg>